<mxfile host="app.diagrams.net" modified="2024-01-22T17:52:23.091Z" agent="Mozilla/5.0 (Windows NT 10.0; Win64; x64) AppleWebKit/537.36 (KHTML, like Gecko) Chrome/119.0.0.0 Safari/537.36 OPR/105.0.0.0" etag="5FasAgXssyp_Xdhzoovq" version="22.1.21" type="device">
  <diagram name="Page-1" id="gSGsMR3R6fLhj4QWgUW0">
    <mxGraphModel dx="4583" dy="2649" grid="1" gridSize="10" guides="1" tooltips="1" connect="1" arrows="1" fold="1" page="1" pageScale="1" pageWidth="850" pageHeight="1100" math="0" shadow="0">
      <root>
        <mxCell id="0" />
        <mxCell id="1" parent="0" />
        <mxCell id="OLzSjEdEvd_OAoApnBqM-49" value="" style="rounded=0;whiteSpace=wrap;html=1;" vertex="1" parent="1">
          <mxGeometry x="-1650" y="-440" width="570" height="590" as="geometry" />
        </mxCell>
        <mxCell id="OLzSjEdEvd_OAoApnBqM-1" value="AWS" style="ellipse;shape=cloud;whiteSpace=wrap;html=1;" vertex="1" parent="1">
          <mxGeometry x="-860" y="-1080" width="440" height="250" as="geometry" />
        </mxCell>
        <mxCell id="OLzSjEdEvd_OAoApnBqM-3" value="GCP" style="ellipse;shape=cloud;whiteSpace=wrap;html=1;" vertex="1" parent="1">
          <mxGeometry x="-1370" y="-1080" width="440" height="250" as="geometry" />
        </mxCell>
        <mxCell id="OLzSjEdEvd_OAoApnBqM-7" style="edgeStyle=orthogonalEdgeStyle;rounded=0;orthogonalLoop=1;jettySize=auto;html=1;exitX=0.5;exitY=1;exitDx=0;exitDy=0;exitPerimeter=0;entryX=1;entryY=0.5;entryDx=0;entryDy=0;" edge="1" parent="1" source="OLzSjEdEvd_OAoApnBqM-4" target="OLzSjEdEvd_OAoApnBqM-6">
          <mxGeometry relative="1" as="geometry" />
        </mxCell>
        <mxCell id="OLzSjEdEvd_OAoApnBqM-10" style="edgeStyle=orthogonalEdgeStyle;rounded=0;orthogonalLoop=1;jettySize=auto;html=1;exitX=0.5;exitY=1;exitDx=0;exitDy=0;exitPerimeter=0;entryX=1;entryY=0.5;entryDx=0;entryDy=0;" edge="1" parent="1" source="OLzSjEdEvd_OAoApnBqM-4" target="OLzSjEdEvd_OAoApnBqM-13">
          <mxGeometry relative="1" as="geometry">
            <mxPoint x="-780" y="-640" as="targetPoint" />
          </mxGeometry>
        </mxCell>
        <mxCell id="OLzSjEdEvd_OAoApnBqM-4" value="DB" style="shape=cylinder3;whiteSpace=wrap;html=1;boundedLbl=1;backgroundOutline=1;size=15;" vertex="1" parent="1">
          <mxGeometry x="-580" y="-970" width="60" height="80" as="geometry" />
        </mxCell>
        <mxCell id="OLzSjEdEvd_OAoApnBqM-11" style="edgeStyle=orthogonalEdgeStyle;rounded=0;orthogonalLoop=1;jettySize=auto;html=1;exitX=0.5;exitY=1;exitDx=0;exitDy=0;exitPerimeter=0;entryX=0;entryY=0.5;entryDx=0;entryDy=0;" edge="1" parent="1" source="OLzSjEdEvd_OAoApnBqM-5" target="OLzSjEdEvd_OAoApnBqM-13">
          <mxGeometry relative="1" as="geometry">
            <mxPoint x="-900" y="-640" as="targetPoint" />
          </mxGeometry>
        </mxCell>
        <mxCell id="OLzSjEdEvd_OAoApnBqM-5" value="DB" style="shape=cylinder3;whiteSpace=wrap;html=1;boundedLbl=1;backgroundOutline=1;size=15;" vertex="1" parent="1">
          <mxGeometry x="-1100" y="-950" width="60" height="80" as="geometry" />
        </mxCell>
        <mxCell id="OLzSjEdEvd_OAoApnBqM-12" style="edgeStyle=orthogonalEdgeStyle;rounded=0;orthogonalLoop=1;jettySize=auto;html=1;exitX=0.5;exitY=1;exitDx=0;exitDy=0;entryX=0.5;entryY=0;entryDx=0;entryDy=0;" edge="1" parent="1" source="OLzSjEdEvd_OAoApnBqM-6">
          <mxGeometry relative="1" as="geometry">
            <mxPoint x="-840" y="-670" as="targetPoint" />
          </mxGeometry>
        </mxCell>
        <mxCell id="OLzSjEdEvd_OAoApnBqM-6" value="Migrator" style="rounded=1;whiteSpace=wrap;html=1;" vertex="1" parent="1">
          <mxGeometry x="-900" y="-790" width="120" height="60" as="geometry" />
        </mxCell>
        <mxCell id="OLzSjEdEvd_OAoApnBqM-8" style="edgeStyle=orthogonalEdgeStyle;rounded=0;orthogonalLoop=1;jettySize=auto;html=1;exitX=0;exitY=0.5;exitDx=0;exitDy=0;entryX=0.5;entryY=1;entryDx=0;entryDy=0;entryPerimeter=0;" edge="1" parent="1" source="OLzSjEdEvd_OAoApnBqM-6" target="OLzSjEdEvd_OAoApnBqM-5">
          <mxGeometry relative="1" as="geometry" />
        </mxCell>
        <mxCell id="OLzSjEdEvd_OAoApnBqM-16" style="edgeStyle=orthogonalEdgeStyle;rounded=0;orthogonalLoop=1;jettySize=auto;html=1;exitX=0.5;exitY=1;exitDx=0;exitDy=0;entryX=0.5;entryY=0;entryDx=0;entryDy=0;" edge="1" parent="1" source="OLzSjEdEvd_OAoApnBqM-13" target="OLzSjEdEvd_OAoApnBqM-15">
          <mxGeometry relative="1" as="geometry" />
        </mxCell>
        <mxCell id="OLzSjEdEvd_OAoApnBqM-19" style="edgeStyle=orthogonalEdgeStyle;rounded=0;orthogonalLoop=1;jettySize=auto;html=1;exitX=1;exitY=1;exitDx=0;exitDy=0;entryX=1;entryY=0.75;entryDx=0;entryDy=0;" edge="1" parent="1" source="OLzSjEdEvd_OAoApnBqM-13" target="OLzSjEdEvd_OAoApnBqM-6">
          <mxGeometry relative="1" as="geometry">
            <mxPoint x="-780" y="-605" as="sourcePoint" />
            <mxPoint x="-740" y="-740" as="targetPoint" />
            <Array as="points">
              <mxPoint x="-760" y="-610" />
              <mxPoint x="-760" y="-745" />
            </Array>
          </mxGeometry>
        </mxCell>
        <mxCell id="OLzSjEdEvd_OAoApnBqM-13" value="Validator" style="rhombus;whiteSpace=wrap;html=1;" vertex="1" parent="1">
          <mxGeometry x="-880" y="-670" width="80" height="80" as="geometry" />
        </mxCell>
        <mxCell id="OLzSjEdEvd_OAoApnBqM-15" value="Generate Report" style="rounded=1;whiteSpace=wrap;html=1;" vertex="1" parent="1">
          <mxGeometry x="-900" y="-510" width="120" height="60" as="geometry" />
        </mxCell>
        <mxCell id="OLzSjEdEvd_OAoApnBqM-17" value="yes" style="text;html=1;align=center;verticalAlign=middle;resizable=0;points=[];autosize=1;strokeColor=none;fillColor=none;" vertex="1" parent="1">
          <mxGeometry x="-880" y="-570" width="40" height="30" as="geometry" />
        </mxCell>
        <mxCell id="OLzSjEdEvd_OAoApnBqM-20" value="No" style="text;html=1;align=center;verticalAlign=middle;resizable=0;points=[];autosize=1;strokeColor=none;fillColor=none;" vertex="1" parent="1">
          <mxGeometry x="-810" y="-610" width="40" height="30" as="geometry" />
        </mxCell>
        <mxCell id="OLzSjEdEvd_OAoApnBqM-37" style="edgeStyle=orthogonalEdgeStyle;rounded=0;orthogonalLoop=1;jettySize=auto;html=1;exitX=0.5;exitY=1;exitDx=0;exitDy=0;exitPerimeter=0;entryX=1;entryY=0.25;entryDx=0;entryDy=0;" edge="1" parent="1" source="OLzSjEdEvd_OAoApnBqM-22" target="OLzSjEdEvd_OAoApnBqM-35">
          <mxGeometry relative="1" as="geometry" />
        </mxCell>
        <mxCell id="OLzSjEdEvd_OAoApnBqM-22" value="Source" style="shape=cylinder3;whiteSpace=wrap;html=1;boundedLbl=1;backgroundOutline=1;size=15;" vertex="1" parent="1">
          <mxGeometry x="-1195" y="-380" width="60" height="80" as="geometry" />
        </mxCell>
        <mxCell id="OLzSjEdEvd_OAoApnBqM-23" value="Target" style="shape=cylinder3;whiteSpace=wrap;html=1;boundedLbl=1;backgroundOutline=1;size=15;" vertex="1" parent="1">
          <mxGeometry x="-1595" y="-380" width="60" height="80" as="geometry" />
        </mxCell>
        <mxCell id="OLzSjEdEvd_OAoApnBqM-34" style="edgeStyle=orthogonalEdgeStyle;rounded=0;orthogonalLoop=1;jettySize=auto;html=1;exitX=0.5;exitY=1;exitDx=0;exitDy=0;entryX=0.5;entryY=0;entryDx=0;entryDy=0;" edge="1" parent="1" source="OLzSjEdEvd_OAoApnBqM-27" target="OLzSjEdEvd_OAoApnBqM-33">
          <mxGeometry relative="1" as="geometry" />
        </mxCell>
        <mxCell id="OLzSjEdEvd_OAoApnBqM-27" value="Establish Connection&amp;nbsp;" style="rounded=1;whiteSpace=wrap;html=1;" vertex="1" parent="1">
          <mxGeometry x="-1435" y="-370" width="120" height="60" as="geometry" />
        </mxCell>
        <mxCell id="OLzSjEdEvd_OAoApnBqM-28" value="" style="endArrow=classic;startArrow=classic;html=1;rounded=0;entryX=0;entryY=0.5;entryDx=0;entryDy=0;entryPerimeter=0;exitX=1;exitY=0.5;exitDx=0;exitDy=0;" edge="1" parent="1" source="OLzSjEdEvd_OAoApnBqM-27" target="OLzSjEdEvd_OAoApnBqM-22">
          <mxGeometry width="50" height="50" relative="1" as="geometry">
            <mxPoint x="-1235" y="-230" as="sourcePoint" />
            <mxPoint x="-1185" y="-280" as="targetPoint" />
          </mxGeometry>
        </mxCell>
        <mxCell id="OLzSjEdEvd_OAoApnBqM-29" value="" style="endArrow=classic;startArrow=classic;html=1;rounded=0;entryX=0;entryY=0.5;entryDx=0;entryDy=0;exitX=1;exitY=0.5;exitDx=0;exitDy=0;exitPerimeter=0;" edge="1" parent="1" source="OLzSjEdEvd_OAoApnBqM-23" target="OLzSjEdEvd_OAoApnBqM-27">
          <mxGeometry width="50" height="50" relative="1" as="geometry">
            <mxPoint x="-1235" y="-230" as="sourcePoint" />
            <mxPoint x="-1185" y="-280" as="targetPoint" />
          </mxGeometry>
        </mxCell>
        <mxCell id="OLzSjEdEvd_OAoApnBqM-36" style="edgeStyle=orthogonalEdgeStyle;rounded=0;orthogonalLoop=1;jettySize=auto;html=1;exitX=0.5;exitY=1;exitDx=0;exitDy=0;entryX=0.5;entryY=0;entryDx=0;entryDy=0;" edge="1" parent="1" source="OLzSjEdEvd_OAoApnBqM-33" target="OLzSjEdEvd_OAoApnBqM-35">
          <mxGeometry relative="1" as="geometry" />
        </mxCell>
        <mxCell id="OLzSjEdEvd_OAoApnBqM-33" value="Enabling Encrypted Communication medium&amp;nbsp;" style="rounded=1;whiteSpace=wrap;html=1;" vertex="1" parent="1">
          <mxGeometry x="-1435" y="-260" width="120" height="60" as="geometry" />
        </mxCell>
        <mxCell id="OLzSjEdEvd_OAoApnBqM-41" style="edgeStyle=orthogonalEdgeStyle;rounded=0;orthogonalLoop=1;jettySize=auto;html=1;exitX=0.5;exitY=1;exitDx=0;exitDy=0;entryX=0.5;entryY=0;entryDx=0;entryDy=0;" edge="1" parent="1" source="OLzSjEdEvd_OAoApnBqM-35" target="OLzSjEdEvd_OAoApnBqM-40">
          <mxGeometry relative="1" as="geometry" />
        </mxCell>
        <mxCell id="OLzSjEdEvd_OAoApnBqM-35" value="Get data from source" style="rounded=1;whiteSpace=wrap;html=1;" vertex="1" parent="1">
          <mxGeometry x="-1435" y="-170" width="120" height="60" as="geometry" />
        </mxCell>
        <mxCell id="OLzSjEdEvd_OAoApnBqM-44" style="edgeStyle=orthogonalEdgeStyle;rounded=0;orthogonalLoop=1;jettySize=auto;html=1;exitX=1;exitY=0.5;exitDx=0;exitDy=0;entryX=1;entryY=0.5;entryDx=0;entryDy=0;" edge="1" parent="1" source="OLzSjEdEvd_OAoApnBqM-40" target="OLzSjEdEvd_OAoApnBqM-35">
          <mxGeometry relative="1" as="geometry">
            <Array as="points">
              <mxPoint x="-1285" y="-40" />
              <mxPoint x="-1285" y="-140" />
            </Array>
          </mxGeometry>
        </mxCell>
        <mxCell id="OLzSjEdEvd_OAoApnBqM-47" style="edgeStyle=orthogonalEdgeStyle;rounded=0;orthogonalLoop=1;jettySize=auto;html=1;exitX=0.5;exitY=1;exitDx=0;exitDy=0;entryX=0.5;entryY=0;entryDx=0;entryDy=0;" edge="1" parent="1" source="OLzSjEdEvd_OAoApnBqM-40" target="OLzSjEdEvd_OAoApnBqM-46">
          <mxGeometry relative="1" as="geometry" />
        </mxCell>
        <mxCell id="OLzSjEdEvd_OAoApnBqM-83" value="Yes" style="edgeLabel;html=1;align=center;verticalAlign=middle;resizable=0;points=[];" vertex="1" connectable="0" parent="OLzSjEdEvd_OAoApnBqM-47">
          <mxGeometry x="-0.4489" y="-2" relative="1" as="geometry">
            <mxPoint as="offset" />
          </mxGeometry>
        </mxCell>
        <mxCell id="OLzSjEdEvd_OAoApnBqM-40" value="Push&amp;nbsp;&lt;br&gt;data to&amp;nbsp;&lt;br&gt;target" style="rhombus;whiteSpace=wrap;html=1;" vertex="1" parent="1">
          <mxGeometry x="-1415" y="-80" width="80" height="80" as="geometry" />
        </mxCell>
        <mxCell id="OLzSjEdEvd_OAoApnBqM-42" style="edgeStyle=orthogonalEdgeStyle;rounded=0;orthogonalLoop=1;jettySize=auto;html=1;exitX=0;exitY=0.5;exitDx=0;exitDy=0;entryX=0.5;entryY=1;entryDx=0;entryDy=0;entryPerimeter=0;" edge="1" parent="1" source="OLzSjEdEvd_OAoApnBqM-40" target="OLzSjEdEvd_OAoApnBqM-23">
          <mxGeometry relative="1" as="geometry" />
        </mxCell>
        <mxCell id="OLzSjEdEvd_OAoApnBqM-45" value="No" style="text;html=1;align=center;verticalAlign=middle;resizable=0;points=[];autosize=1;strokeColor=none;fillColor=none;" vertex="1" parent="1">
          <mxGeometry x="-1345" y="-72" width="40" height="30" as="geometry" />
        </mxCell>
        <mxCell id="OLzSjEdEvd_OAoApnBqM-46" value="Proceed to Data Validation" style="rounded=1;whiteSpace=wrap;html=1;" vertex="1" parent="1">
          <mxGeometry x="-1435" y="50" width="120" height="60" as="geometry" />
        </mxCell>
        <mxCell id="OLzSjEdEvd_OAoApnBqM-50" value="Migrator" style="text;html=1;strokeColor=none;fillColor=none;align=center;verticalAlign=middle;whiteSpace=wrap;rounded=0;" vertex="1" parent="1">
          <mxGeometry x="-1195" y="50" width="60" height="30" as="geometry" />
        </mxCell>
        <mxCell id="OLzSjEdEvd_OAoApnBqM-52" value="" style="rounded=0;whiteSpace=wrap;html=1;" vertex="1" parent="1">
          <mxGeometry x="-670" y="-440" width="570" height="620" as="geometry" />
        </mxCell>
        <mxCell id="OLzSjEdEvd_OAoApnBqM-53" value="Target" style="shape=cylinder3;whiteSpace=wrap;html=1;boundedLbl=1;backgroundOutline=1;size=15;" vertex="1" parent="1">
          <mxGeometry x="-610" y="-430" width="60" height="80" as="geometry" />
        </mxCell>
        <mxCell id="OLzSjEdEvd_OAoApnBqM-54" value="Source" style="shape=cylinder3;whiteSpace=wrap;html=1;boundedLbl=1;backgroundOutline=1;size=15;" vertex="1" parent="1">
          <mxGeometry x="-210" y="-420" width="60" height="80" as="geometry" />
        </mxCell>
        <mxCell id="OLzSjEdEvd_OAoApnBqM-67" style="edgeStyle=orthogonalEdgeStyle;rounded=0;orthogonalLoop=1;jettySize=auto;html=1;exitX=0.5;exitY=1;exitDx=0;exitDy=0;entryX=0.5;entryY=0;entryDx=0;entryDy=0;" edge="1" parent="1" source="OLzSjEdEvd_OAoApnBqM-55" target="OLzSjEdEvd_OAoApnBqM-61">
          <mxGeometry relative="1" as="geometry" />
        </mxCell>
        <mxCell id="OLzSjEdEvd_OAoApnBqM-81" value="Yes" style="edgeLabel;html=1;align=center;verticalAlign=middle;resizable=0;points=[];" vertex="1" connectable="0" parent="OLzSjEdEvd_OAoApnBqM-67">
          <mxGeometry x="-0.1619" y="1" relative="1" as="geometry">
            <mxPoint as="offset" />
          </mxGeometry>
        </mxCell>
        <mxCell id="OLzSjEdEvd_OAoApnBqM-78" style="edgeStyle=orthogonalEdgeStyle;rounded=0;orthogonalLoop=1;jettySize=auto;html=1;exitX=1;exitY=1;exitDx=0;exitDy=0;entryX=0.5;entryY=0;entryDx=0;entryDy=0;" edge="1" parent="1" source="OLzSjEdEvd_OAoApnBqM-55" target="OLzSjEdEvd_OAoApnBqM-59">
          <mxGeometry relative="1" as="geometry" />
        </mxCell>
        <mxCell id="OLzSjEdEvd_OAoApnBqM-80" value="NO" style="edgeLabel;html=1;align=center;verticalAlign=middle;resizable=0;points=[];" vertex="1" connectable="0" parent="OLzSjEdEvd_OAoApnBqM-78">
          <mxGeometry x="-0.6792" y="-3" relative="1" as="geometry">
            <mxPoint as="offset" />
          </mxGeometry>
        </mxCell>
        <mxCell id="OLzSjEdEvd_OAoApnBqM-55" value="check&lt;br&gt;connection" style="rhombus;whiteSpace=wrap;html=1;" vertex="1" parent="1">
          <mxGeometry x="-435" y="-420" width="80" height="80" as="geometry" />
        </mxCell>
        <mxCell id="OLzSjEdEvd_OAoApnBqM-56" value="" style="endArrow=classic;startArrow=classic;html=1;rounded=0;entryX=0;entryY=0.5;entryDx=0;entryDy=0;exitX=1;exitY=0;exitDx=0;exitDy=52.5;exitPerimeter=0;" edge="1" parent="1" source="OLzSjEdEvd_OAoApnBqM-53" target="OLzSjEdEvd_OAoApnBqM-55">
          <mxGeometry width="50" height="50" relative="1" as="geometry">
            <mxPoint x="-750" y="-130" as="sourcePoint" />
            <mxPoint x="-700" y="-180" as="targetPoint" />
          </mxGeometry>
        </mxCell>
        <mxCell id="OLzSjEdEvd_OAoApnBqM-57" value="" style="endArrow=classic;startArrow=classic;html=1;rounded=0;entryX=0;entryY=0.5;entryDx=0;entryDy=0;entryPerimeter=0;exitX=1;exitY=0.5;exitDx=0;exitDy=0;" edge="1" parent="1" source="OLzSjEdEvd_OAoApnBqM-55" target="OLzSjEdEvd_OAoApnBqM-54">
          <mxGeometry width="50" height="50" relative="1" as="geometry">
            <mxPoint x="-320" y="-310" as="sourcePoint" />
            <mxPoint x="-270" y="-360" as="targetPoint" />
          </mxGeometry>
        </mxCell>
        <mxCell id="OLzSjEdEvd_OAoApnBqM-79" style="edgeStyle=orthogonalEdgeStyle;rounded=0;orthogonalLoop=1;jettySize=auto;html=1;exitX=0;exitY=0.5;exitDx=0;exitDy=0;entryX=1;entryY=0.5;entryDx=0;entryDy=0;" edge="1" parent="1" source="OLzSjEdEvd_OAoApnBqM-59" target="OLzSjEdEvd_OAoApnBqM-61">
          <mxGeometry relative="1" as="geometry" />
        </mxCell>
        <mxCell id="OLzSjEdEvd_OAoApnBqM-59" value="Establish Connection&amp;nbsp;" style="rounded=1;whiteSpace=wrap;html=1;" vertex="1" parent="1">
          <mxGeometry x="-280" y="-290" width="120" height="60" as="geometry" />
        </mxCell>
        <mxCell id="OLzSjEdEvd_OAoApnBqM-68" style="edgeStyle=orthogonalEdgeStyle;rounded=0;orthogonalLoop=1;jettySize=auto;html=1;exitX=0.5;exitY=1;exitDx=0;exitDy=0;entryX=0.5;entryY=0;entryDx=0;entryDy=0;" edge="1" parent="1" source="OLzSjEdEvd_OAoApnBqM-61" target="OLzSjEdEvd_OAoApnBqM-62">
          <mxGeometry relative="1" as="geometry" />
        </mxCell>
        <mxCell id="OLzSjEdEvd_OAoApnBqM-61" value="Enabling Encrypted Communication medium&amp;nbsp;" style="rounded=1;whiteSpace=wrap;html=1;" vertex="1" parent="1">
          <mxGeometry x="-455" y="-290" width="120" height="60" as="geometry" />
        </mxCell>
        <mxCell id="OLzSjEdEvd_OAoApnBqM-69" style="edgeStyle=orthogonalEdgeStyle;rounded=0;orthogonalLoop=1;jettySize=auto;html=1;exitX=0.75;exitY=1;exitDx=0;exitDy=0;entryX=0;entryY=0;entryDx=0;entryDy=0;" edge="1" parent="1" source="OLzSjEdEvd_OAoApnBqM-62" target="OLzSjEdEvd_OAoApnBqM-64">
          <mxGeometry relative="1" as="geometry" />
        </mxCell>
        <mxCell id="OLzSjEdEvd_OAoApnBqM-71" style="edgeStyle=orthogonalEdgeStyle;rounded=0;orthogonalLoop=1;jettySize=auto;html=1;exitX=0.25;exitY=1;exitDx=0;exitDy=0;entryX=1;entryY=0;entryDx=0;entryDy=0;" edge="1" parent="1" source="OLzSjEdEvd_OAoApnBqM-62" target="OLzSjEdEvd_OAoApnBqM-63">
          <mxGeometry relative="1" as="geometry" />
        </mxCell>
        <mxCell id="OLzSjEdEvd_OAoApnBqM-62" value="Get data from both&lt;br&gt;source &amp;amp; target" style="rounded=1;whiteSpace=wrap;html=1;" vertex="1" parent="1">
          <mxGeometry x="-455" y="-200" width="120" height="60" as="geometry" />
        </mxCell>
        <mxCell id="OLzSjEdEvd_OAoApnBqM-72" style="edgeStyle=orthogonalEdgeStyle;rounded=0;orthogonalLoop=1;jettySize=auto;html=1;exitX=0.75;exitY=1;exitDx=0;exitDy=0;entryX=0;entryY=0;entryDx=0;entryDy=0;" edge="1" parent="1" source="OLzSjEdEvd_OAoApnBqM-63" target="OLzSjEdEvd_OAoApnBqM-65">
          <mxGeometry relative="1" as="geometry" />
        </mxCell>
        <mxCell id="OLzSjEdEvd_OAoApnBqM-63" value="Raw Data" style="rounded=1;whiteSpace=wrap;html=1;" vertex="1" parent="1">
          <mxGeometry x="-510" y="-110" width="90" height="60" as="geometry" />
        </mxCell>
        <mxCell id="OLzSjEdEvd_OAoApnBqM-73" style="edgeStyle=orthogonalEdgeStyle;rounded=0;orthogonalLoop=1;jettySize=auto;html=1;exitX=0.25;exitY=1;exitDx=0;exitDy=0;entryX=1;entryY=0;entryDx=0;entryDy=0;" edge="1" parent="1" source="OLzSjEdEvd_OAoApnBqM-64" target="OLzSjEdEvd_OAoApnBqM-65">
          <mxGeometry relative="1" as="geometry" />
        </mxCell>
        <mxCell id="OLzSjEdEvd_OAoApnBqM-64" value="Encrypted Data" style="rounded=1;whiteSpace=wrap;html=1;" vertex="1" parent="1">
          <mxGeometry x="-355" y="-112" width="90" height="60" as="geometry" />
        </mxCell>
        <mxCell id="OLzSjEdEvd_OAoApnBqM-74" style="edgeStyle=orthogonalEdgeStyle;rounded=0;orthogonalLoop=1;jettySize=auto;html=1;exitX=0.5;exitY=1;exitDx=0;exitDy=0;entryX=0.5;entryY=0;entryDx=0;entryDy=0;" edge="1" parent="1" source="OLzSjEdEvd_OAoApnBqM-65" target="OLzSjEdEvd_OAoApnBqM-66">
          <mxGeometry relative="1" as="geometry" />
        </mxCell>
        <mxCell id="OLzSjEdEvd_OAoApnBqM-77" value="YES" style="edgeLabel;html=1;align=center;verticalAlign=middle;resizable=0;points=[];" vertex="1" connectable="0" parent="OLzSjEdEvd_OAoApnBqM-74">
          <mxGeometry x="-0.3778" y="1" relative="1" as="geometry">
            <mxPoint as="offset" />
          </mxGeometry>
        </mxCell>
        <mxCell id="OLzSjEdEvd_OAoApnBqM-75" style="edgeStyle=orthogonalEdgeStyle;rounded=0;orthogonalLoop=1;jettySize=auto;html=1;exitX=1;exitY=0.5;exitDx=0;exitDy=0;entryX=1;entryY=0.5;entryDx=0;entryDy=0;" edge="1" parent="1" source="OLzSjEdEvd_OAoApnBqM-65" target="OLzSjEdEvd_OAoApnBqM-62">
          <mxGeometry relative="1" as="geometry">
            <Array as="points">
              <mxPoint x="-230" y="15" />
              <mxPoint x="-230" y="-170" />
            </Array>
          </mxGeometry>
        </mxCell>
        <mxCell id="OLzSjEdEvd_OAoApnBqM-76" value="NO" style="edgeLabel;html=1;align=center;verticalAlign=middle;resizable=0;points=[];" vertex="1" connectable="0" parent="OLzSjEdEvd_OAoApnBqM-75">
          <mxGeometry x="-0.839" y="4" relative="1" as="geometry">
            <mxPoint as="offset" />
          </mxGeometry>
        </mxCell>
        <mxCell id="OLzSjEdEvd_OAoApnBqM-65" value="Validate&amp;nbsp;&lt;br&gt;data&lt;br&gt;rows, hash, etc." style="rhombus;whiteSpace=wrap;html=1;" vertex="1" parent="1">
          <mxGeometry x="-472.5" y="-30" width="155" height="90" as="geometry" />
        </mxCell>
        <mxCell id="OLzSjEdEvd_OAoApnBqM-66" value="Generate Report" style="rounded=1;whiteSpace=wrap;html=1;" vertex="1" parent="1">
          <mxGeometry x="-455" y="90" width="120" height="60" as="geometry" />
        </mxCell>
        <mxCell id="OLzSjEdEvd_OAoApnBqM-82" value="Validator" style="text;html=1;strokeColor=none;fillColor=none;align=center;verticalAlign=middle;whiteSpace=wrap;rounded=0;" vertex="1" parent="1">
          <mxGeometry x="-210" y="110" width="60" height="30" as="geometry" />
        </mxCell>
      </root>
    </mxGraphModel>
  </diagram>
</mxfile>
